<svg xmlns="http://www.w3.org/2000/svg" width="256" height="256" viewBox="0 0 100 100"><path d="M24.56 16.21L24.56 35.50L29.44 35.50Q36.62 35.50 40.04 33.11Q43.46 30.71 43.46 25.59L43.46 25.59Q43.46 20.51 39.97 18.36Q36.47 16.21 29.15 16.21L29.15 16.21L24.56 16.21ZM32.62 47.80L24.56 47.80L24.56 75.20L9.42 75.20L9.42 3.81L30.22 3.81Q44.78 3.81 51.76 9.11Q58.74 14.40 58.74 25.20L58.74 25.20Q58.74 31.49 55.27 36.40Q51.81 41.31 45.46 44.09L45.46 44.09Q61.57 68.16 66.46 75.20L66.46 75.20L49.66 75.20L32.62 47.80ZM67.97 96.19L67.97 96.19Q62.84 96.19 59.03 95.12L59.03 95.12L59.03 82.52Q62.94 83.50 66.16 83.50L66.16 83.50Q71.14 83.50 73.29 80.40Q75.44 77.29 75.44 70.70L75.44 70.70L75.44 3.81L90.58 3.81L90.58 70.61Q90.58 83.11 84.86 89.65Q79.15 96.19 67.97 96.19Z" fill="#049cdb"></path></svg>