<svg id="Layer_1" data-name="Layer 1" xmlns="http://www.w3.org/2000/svg" width="462" height="260" viewBox="0 0 462 260"><defs><style>.cls-1,.cls-3,.cls-4,.cls-6{fill:none;}.cls-1,.cls-6{stroke:#666;}.cls-1,.cls-4,.cls-6{stroke-miterlimit:10;}.cls-1{stroke-dasharray:6;}.cls-2{fill:#1a1a1a;}.cls-3{stroke:#999;stroke-linecap:square;}.cls-4{stroke:#ddd;}.cls-5{fill:#666;}.cls-7{fill:#7aaad5;}.cls-8{fill:#a1ce5c;}.cls-9{fill:#fff;}.cls-10{fill:#76b900;}.cls-11{fill:#8cc43a;}</style></defs><line class="cls-1" x1="33.4823" y1="23.97" x2="343.5177" y2="23.97"/><path class="cls-2" d="M16.9541,222.77012a1.8705,1.8705,0,0,1-1.94336-1.95313v-3.30762a1.94338,1.94338,0,1,1,3.88672,0V220.817A1.87049,1.87049,0,0,1,16.9541,222.77012Zm1.22559-5.22071a1.23181,1.23181,0,1,0-2.45117,0v3.22852a1.23172,1.23172,0,1,0,2.45117,0Z"/><path class="cls-2" d="M5.94922,199.13437V192.8375l-1.3252,1.165v-.81641l1.3252-1.14648H6.667v7.09472Z"/><path class="cls-2" d="M10.78223,199.19394a1.87048,1.87048,0,0,1-1.94336-1.95312V193.9332a1.87048,1.87048,0,0,1,1.94336-1.95312,1.87049,1.87049,0,0,1,1.94336,1.95312v3.30762A1.87049,1.87049,0,0,1,10.78223,199.19394Zm1.22558-5.2207a1.23181,1.23181,0,1,0-2.45117,0v3.22852a1.23172,1.23172,0,1,0,2.45117,0Z"/><path class="cls-2" d="M17.87109,199.13437l-1.72363-2.97949-1.7334,2.97949h-.85742l2.17188-3.63671-2.03223-3.458h.877l1.57422,2.7998,1.57422-2.7998h.877l-2.043,3.458,2.19239,3.63671Z"/><path class="cls-2" d="M3.53809,175.55723v-.63672l2.7998-3.55762a1.62185,1.62185,0,0,0,.39844-1.0459A1.16683,1.16683,0,0,0,5.501,169.0416a1.15786,1.15786,0,0,0-1.23536,1.28516H3.54785A1.84446,1.84446,0,0,1,5.501,168.40293,1.82092,1.82092,0,0,1,7.4541,170.317a2.123,2.123,0,0,1-.56836,1.43457L4.4043,174.92051H7.4541v.63672Z"/><path class="cls-2" d="M10.7832,175.61777a1.87049,1.87049,0,0,1-1.94336-1.95312v-3.3086a1.87049,1.87049,0,0,1,1.94336-1.95312,1.87048,1.87048,0,0,1,1.94336,1.95312v3.3086A1.87048,1.87048,0,0,1,10.7832,175.61777Zm1.22559-5.2207a1.23181,1.23181,0,1,0-2.45117,0v3.22754a1.23172,1.23172,0,1,0,2.45117,0Z"/><path class="cls-2" d="M17.87109,175.55723l-1.72363-2.97852-1.7334,2.97852h-.85742l2.17188-3.63672-2.03223-3.457h.877l1.57422,2.7998,1.57422-2.7998h.877l-2.043,3.457,2.19239,3.63672Z"/><path class="cls-2" d="M5.36621,152.05137a1.88434,1.88434,0,0,1-2.082-1.874H4.001a1.25285,1.25285,0,0,0,1.36523,1.23633,1.29952,1.29952,0,0,0,1.36524-1.375,1.23336,1.23336,0,0,0-1.39551-1.375H5.18652v-.62793h.14942a1.1419,1.1419,0,0,0,1.26562-1.28515,1.18781,1.18781,0,0,0-1.23535-1.2959,1.20353,1.20353,0,0,0-1.27539,1.18554H3.37305A1.8872,1.8872,0,0,1,5.36621,144.817a1.83848,1.83848,0,0,1,1.95313,1.92285,1.59177,1.59177,0,0,1-.957,1.5752,1.66165,1.66165,0,0,1,1.08594,1.7334A1.9235,1.9235,0,0,1,5.36621,152.05137Z"/><path class="cls-2" d="M10.7832,152.04062a1.86969,1.86969,0,0,1-1.94336-1.95214v-3.3086a1.87049,1.87049,0,0,1,1.94336-1.95312,1.87048,1.87048,0,0,1,1.94336,1.95312v3.3086A1.86969,1.86969,0,0,1,10.7832,152.04062Zm1.22559-5.2207a1.23181,1.23181,0,1,0-2.45117,0v3.22852a1.23172,1.23172,0,1,0,2.45117,0Z"/><path class="cls-2" d="M17.87109,151.98105l-1.72363-2.97851-1.7334,2.97851h-.85742l2.17188-3.63671-2.03223-3.457h.877l1.57422,2.79981,1.57422-2.79981h.877l-2.043,3.457,2.19239,3.63671Z"/><path class="cls-2" d="M6.69434,127.27891v1.126h-.707v-1.126H3.15723v-.64747l2.56054-5.32128h.76758L3.9248,126.63144H5.9873v-2.01269h.707v2.01269h.86718v.64747Z"/><path class="cls-2" d="M10.7832,128.46445a1.87049,1.87049,0,0,1-1.94336-1.95312v-3.30762a1.87049,1.87049,0,0,1,1.94336-1.95312,1.87048,1.87048,0,0,1,1.94336,1.95312v3.30762A1.87048,1.87048,0,0,1,10.7832,128.46445Zm1.22559-5.2207a1.23181,1.23181,0,1,0-2.45117,0v3.22754a1.23181,1.23181,0,1,0,2.45117,0Z"/><path class="cls-2" d="M17.87109,128.40488l-1.72363-2.97949-1.7334,2.97949h-.85742l2.17188-3.63672-2.03223-3.458h.877l1.57422,2.7998,1.57422-2.7998h.877l-2.043,3.458,2.19239,3.63672Z"/><path class="cls-2" d="M6.88965,104.36973a1.90661,1.90661,0,0,1-1.415.52832,1.99446,1.99446,0,0,1-1.42481-.50782,1.90756,1.90756,0,0,1-.498-1.23535h.71777a1.10447,1.10447,0,0,0,1.20508,1.10547,1.23265,1.23265,0,0,0,.87695-.3291,1.9717,1.9717,0,0,0,.38867-1.44434c0-.86718-.16894-1.72363-1.19531-1.72363a1.13536,1.13536,0,0,0-1.17578.69727H3.72168V97.734H7.30859v.6377H4.36914v2.252a1.66631,1.66631,0,0,1,1.27539-.48828,1.6918,1.6918,0,0,1,1.22559.44824,2.55676,2.55676,0,0,1,.58789,1.90332A2.46881,2.46881,0,0,1,6.88965,104.36973Z"/><path class="cls-2" d="M10.78223,104.88828a1.87048,1.87048,0,0,1-1.94336-1.95312V99.62754a1.87049,1.87049,0,0,1,1.94336-1.95313,1.8705,1.8705,0,0,1,1.94336,1.95313v3.30762A1.87049,1.87049,0,0,1,10.78223,104.88828Zm1.22558-5.2207a1.23181,1.23181,0,1,0-2.45117,0v3.22754a1.23181,1.23181,0,1,0,2.45117,0Z"/><path class="cls-2" d="M17.87109,104.82871l-1.72363-2.97949-1.7334,2.97949h-.85742l2.17188-3.63672-2.03223-3.458h.877l1.57422,2.79981L17.72168,97.734h.877l-2.043,3.458,2.19239,3.63672Z"/><path class="cls-2" d="M6.98438,7.00644,5.24023,10.52305H4.49316L6.08691,7.33457A1.86414,1.86414,0,0,1,3.49707,5.47129,1.93776,1.93776,0,0,1,5.46,3.36875a1.88664,1.88664,0,0,1,1.97266,2.043A3.50632,3.50632,0,0,1,6.98438,7.00644Zm-1.52442-3A1.26707,1.26707,0,0,0,4.21387,5.442a1.2623,1.2623,0,1,0,2.501,0A1.27374,1.27374,0,0,0,5.46,4.00644Z"/><path class="cls-2" d="M10.78223,10.58262A1.86969,1.86969,0,0,1,8.83887,8.63047V5.32187a1.87048,1.87048,0,0,1,1.94336-1.95312,1.87049,1.87049,0,0,1,1.94336,1.95312v3.3086A1.8697,1.8697,0,0,1,10.78223,10.58262Zm1.22558-5.22071a1.23181,1.23181,0,1,0-2.45117,0V8.59043a1.23172,1.23172,0,1,0,2.45117,0Z"/><path class="cls-2" d="M17.87109,10.52305,16.14746,7.54453l-1.7334,2.97852h-.85742l2.17188-3.63672-2.03223-3.457h.877l1.57422,2.7998,1.57422-2.7998h.877l-2.043,3.457,2.19239,3.63672Z"/><path class="cls-2" d="M5.41211,34.15879a1.98972,1.98972,0,0,1-2.09277-2.01172,1.93369,1.93369,0,0,1,1.0664-1.72461A1.73242,1.73242,0,0,1,3.459,28.84824,1.8664,1.8664,0,0,1,5.41211,26.9459a1.86639,1.86639,0,0,1,1.95312,1.90234,1.72267,1.72267,0,0,1-.917,1.57422,1.9254,1.9254,0,0,1,1.05664,1.72461A1.98972,1.98972,0,0,1,5.41211,34.15879Zm0-3.40625a1.3848,1.3848,0,1,0,1.375,1.38476A1.35492,1.35492,0,0,0,5.41211,30.75254Zm0-3.16992A1.20946,1.20946,0,0,0,4.17676,28.858a1.195,1.195,0,0,0,1.23535,1.26562A1.195,1.195,0,0,0,6.64746,28.858,1.20946,1.20946,0,0,0,5.41211,27.58262Z"/><path class="cls-2" d="M10.7832,34.15879a1.8697,1.8697,0,0,1-1.94336-1.95215V28.899A1.87049,1.87049,0,0,1,10.7832,26.9459,1.87048,1.87048,0,0,1,12.72656,28.899v3.30762A1.86969,1.86969,0,0,1,10.7832,34.15879Zm1.22559-5.2207a1.23181,1.23181,0,1,0-2.45117,0V32.1666a1.23181,1.23181,0,1,0,2.45117,0Z"/><path class="cls-2" d="M17.87109,34.10019,16.14746,31.1207l-1.7334,2.97949h-.85742l2.17188-3.63671-2.03223-3.458h.877l1.57422,2.7998,1.57422-2.7998h.877l-2.043,3.458,2.19239,3.63671Z"/><path class="cls-2" d="M5.16406,57.67637H4.40625l2.46094-6.457H4.39648v1.11621h-.708V50.58164H7.625v.6377Z"/><path class="cls-2" d="M10.78223,57.73594a1.87049,1.87049,0,0,1-1.94336-1.95313V52.47519a1.87048,1.87048,0,0,1,1.94336-1.95312,1.87049,1.87049,0,0,1,1.94336,1.95312v3.30762A1.8705,1.8705,0,0,1,10.78223,57.73594Zm1.22558-5.22071a1.23181,1.23181,0,1,0-2.45117,0v3.22754a1.23181,1.23181,0,1,0,2.45117,0Z"/><path class="cls-2" d="M17.87109,57.67637l-1.72363-2.9795-1.7334,2.9795h-.85742l2.17188-3.63672-2.03223-3.458h.877l1.57422,2.7998,1.57422-2.7998h.877l-2.043,3.458,2.19239,3.63672Z"/><path class="cls-2" d="M5.48535,81.31211a1.88664,1.88664,0,0,1-1.97265-2.043,3.49943,3.49943,0,0,1,.44824-1.59375l1.74414-3.51758h.7373l-1.584,3.18848a1.784,1.784,0,0,1,.74707-.14942,1.84825,1.84825,0,0,1,1.84277,2.0127A1.93725,1.93725,0,0,1,5.48535,81.31211ZM5.47559,77.8043a1.44784,1.44784,0,1,0,1.25586,1.43554A1.28207,1.28207,0,0,0,5.47559,77.8043Z"/><path class="cls-2" d="M10.7832,81.31211A1.87049,1.87049,0,0,1,8.83984,79.359V76.05137a1.8705,1.8705,0,0,1,1.94336-1.95313,1.87049,1.87049,0,0,1,1.94336,1.95313V79.359A1.87049,1.87049,0,0,1,10.7832,81.31211Zm1.22559-5.2207a1.23181,1.23181,0,1,0-2.45117,0v3.22753a1.23181,1.23181,0,1,0,2.45117,0Z"/><path class="cls-2" d="M17.87109,81.25254l-1.72363-2.97949-1.7334,2.97949h-.85742l2.17188-3.63672-2.03223-3.458h.877l1.57422,2.79981,1.57422-2.79981h.877l-2.043,3.458,2.19239,3.63672Z"/><path class="cls-2" d="M145.9834,249.74375v7.085h-.83594v-7.085h-2.2666v-.74805H148.25v.74805Z"/><path class="cls-2" d="M149.708,249.87559V248.985h.89062v.89063Zm.04394,6.95312v-5.41309h.792v5.41309Z"/><path class="cls-2" d="M159.43848,256.82871v-3.333a1.34406,1.34406,0,1,0-2.68457-.08886v3.42187h-.792v-3.333a1.26022,1.26022,0,0,0-1.331-1.4414,1.28082,1.28082,0,0,0-1.35352,1.4414v3.333h-.792v-5.41309h.792v.59473a1.97238,1.97238,0,0,1,1.5293-.66016,1.78449,1.78449,0,0,1,1.66113.90137,2.07271,2.07271,0,0,1,1.78223-.90137,1.97062,1.97062,0,0,1,1.39746.50586,2.014,2.014,0,0,1,.583,1.50684v3.46582Z"/><path class="cls-2" d="M162.67773,254.33164c0,1.1875.56055,1.87012,1.59473,1.87012a1.7798,1.7798,0,0,0,1.41992-.61621l.53907.47265a2.4794,2.4794,0,0,1-1.98047.83692c-1.43067,0-2.36524-.8584-2.36524-2.77246,0-1.75.84668-2.77247,2.22168-2.77247,1.39746,0,2.22266,1.01172,2.22266,2.61817v.36328Zm2.69532-1.49609a1.38983,1.38983,0,0,0-2.53028,0,2.26456,2.26456,0,0,0-.165.90136h2.86036A2.28192,2.28192,0,0,0,165.37305,252.83555Z"/><path class="cls-2" d="M172.26953,256.82871a1.32768,1.32768,0,0,1-1.38672-1.45215V252.0543h-.68164v-.60547h.68164v-1.69434h.792v1.69434h1.15528v.60547H171.6748v3.2998c0,.49512.23145.793.73731.793h.418v.68164Z"/><path class="cls-2" d="M177.78125,256.27891a2.26072,2.26072,0,0,1-3.10254,0,3.85151,3.85151,0,0,1,0-4.3125,2.26069,2.26069,0,0,1,3.10254,0,3.85151,3.85151,0,0,1,0,4.3125Zm-.56152-3.82911a1.38655,1.38655,0,0,0-.99024-.3955,1.36063,1.36063,0,0,0-.97851.3955,3.3953,3.3953,0,0,0,0,3.34473,1.36145,1.36145,0,0,0,.97851.39649,1.38736,1.38736,0,0,0,.99024-.39649,3.46936,3.46936,0,0,0,0-3.34473Z"/><path class="cls-2" d="M185.0293,256.89512a3.41874,3.41874,0,0,1-2.68457-1.03418l.57226-.57227a2.6939,2.6939,0,0,0,2.13477.8584c1.14355,0,1.84765-.53906,1.84765-1.45313a1.26063,1.26063,0,0,0-.374-.97851,1.68975,1.68975,0,0,0-1.02344-.374l-.91308-.14356a2.84112,2.84112,0,0,1-1.44043-.59375,1.85048,1.85048,0,0,1-.59473-1.46289,2.21646,2.21646,0,0,1,2.50879-2.21191,3.14261,3.14261,0,0,1,2.332.85839l-.53906.53907a2.46667,2.46667,0,0,0-1.82617-.6709,1.44739,1.44739,0,0,0-1.65039,1.45215,1.13135,1.13135,0,0,0,.35254.90234,2.2511,2.2511,0,0,0,1.05566.42871l.8584.13184a2.52822,2.52822,0,0,1,1.42969.5498,1.96031,1.96031,0,0,1,.66015,1.55176C187.73535,256.04746,186.65723,256.89512,185.0293,256.89512Z"/><path class="cls-2" d="M192.97852,256.27891a2.26072,2.26072,0,0,1-3.10254,0,3.85151,3.85151,0,0,1,0-4.3125,2.26069,2.26069,0,0,1,3.10254,0,3.85156,3.85156,0,0,1,0,4.3125Zm-.56153-3.82911a1.38653,1.38653,0,0,0-.99023-.3955,1.36063,1.36063,0,0,0-.97852.3955,3.3953,3.3953,0,0,0,0,3.34473,1.36146,1.36146,0,0,0,.97852.39649,1.38734,1.38734,0,0,0,.99023-.39649,3.46929,3.46929,0,0,0,0-3.34473Z"/><path class="cls-2" d="M196.69727,256.82871a1.29019,1.29019,0,0,1-1.376-1.44141v-6.3916h.793v6.3584c0,.52832.17578.793.72558.793h.42871v.68164Z"/><path class="cls-2" d="M202.02051,256.82871v-.60547a1.98529,1.98529,0,0,1-1.5293.67188,1.92506,1.92506,0,0,1-1.39746-.50684,2.01846,2.01846,0,0,1-.5498-1.51758v-3.45508h.792v3.334c0,.957.50586,1.44141,1.32031,1.44141a1.28058,1.28058,0,0,0,1.35254-1.44141v-3.334h.792v5.41309Z"/><path class="cls-2" d="M206.34082,256.82871a1.32768,1.32768,0,0,1-1.38672-1.45215V252.0543h-.68164v-.60547h.68164v-1.69434h.792v1.69434h1.15528v.60547h-1.15528v3.2998c0,.49512.23145.793.73731.793h.418v.68164Z"/><path class="cls-2" d="M208.39062,249.87559V248.985h.89063v.89063Zm.04395,6.95312v-5.41309h.792v5.41309Z"/><path class="cls-2" d="M214.6748,256.27891a2.2607,2.2607,0,0,1-3.10253,0,3.85151,3.85151,0,0,1,0-4.3125,2.26068,2.26068,0,0,1,3.10253,0,3.85151,3.85151,0,0,1,0,4.3125Zm-.56152-3.82911a1.38653,1.38653,0,0,0-.99023-.3955,1.36063,1.36063,0,0,0-.97852.3955,3.3953,3.3953,0,0,0,0,3.34473,1.36146,1.36146,0,0,0,.97852.39649,1.38734,1.38734,0,0,0,.99023-.39649,3.46929,3.46929,0,0,0,0-3.34473Z"/><path class="cls-2" d="M220.50879,256.82871v-3.333a1.3407,1.3407,0,1,0-2.67383,0v3.333h-.792v-5.41309h.792v.59473a1.95,1.95,0,0,1,1.51856-.66016,1.89582,1.89582,0,0,1,1.38574.50586,2.00047,2.00047,0,0,1,.56152,1.50684v3.46582Z"/><path class="cls-2" d="M225.80957,254.232v-.73633h3.01465v.73633Z"/><path class="cls-2" d="M238.03125,256.82871l-1.78223-3.47656h-1.88086v3.47656h-.83691v-7.833h3.00391a2.11866,2.11866,0,0,1,2.32129,2.17774,2.03238,2.03238,0,0,1-1.70508,2.10156l1.85937,3.55371Zm-1.57324-7.085h-2.08985v2.87109H236.458a1.4407,1.4407,0,1,0,0-2.87109Z"/><path class="cls-2" d="M240.93262,254.33164c0,1.1875.56054,1.87012,1.59472,1.87012a1.77983,1.77983,0,0,0,1.41993-.61621l.53906.47265a2.47937,2.47937,0,0,1-1.98047.83692c-1.43066,0-2.36524-.8584-2.36524-2.77246,0-1.75.84668-2.77247,2.22168-2.77247,1.39747,0,2.22266,1.01172,2.22266,2.61817v.36328Zm2.69531-1.49609a1.38982,1.38982,0,0,0-2.53027,0,2.26421,2.26421,0,0,0-.165.90136H243.793A2.28174,2.28174,0,0,0,243.62793,252.83555Z"/><path class="cls-2" d="M247.60645,256.82871a1.29019,1.29019,0,0,1-1.376-1.44141v-6.3916h.792v6.3584c0,.52832.17676.793.72656.793h.42871v.68164Z"/><path class="cls-2" d="M252.81543,256.82871v-.5166a1.90327,1.90327,0,0,1-1.5625.583,1.93144,1.93144,0,0,1-1.5293-.49512,1.5631,1.5631,0,0,1-.40625-1.10059c0-.94629.65918-1.5625,1.87012-1.5625h1.62793v-.5166c0-.792-.39648-1.18847-1.38574-1.18847a1.42,1.42,0,0,0-1.36426.61621l-.53906-.49512a2.09687,2.09687,0,0,1,1.91406-.80274c1.45215,0,2.167.627,2.167,1.80372v3.6748Zm0-2.49707h-1.51855c-.81348,0-1.21.33008-1.21.957s.38477.92383,1.24317.92383a1.58141,1.58141,0,0,0,1.21-.36328,1.24628,1.24628,0,0,0,.27539-.93457Z"/><path class="cls-2" d="M257.02051,256.82871a1.32768,1.32768,0,0,1-1.38672-1.45215V252.0543h-.68164v-.60547h.68164v-1.69434h.792v1.69434h1.15527v.60547h-1.15527v3.2998c0,.49512.23145.793.73731.793h.418v.68164Z"/><path class="cls-2" d="M259.07031,249.87559V248.985h.89063v.89063Zm.04395,6.95312v-5.41309h.792v5.41309Z"/><path class="cls-2" d="M263.89355,256.82871h-.7041l-1.98047-5.41309h.8584l1.47364,4.34571,1.48535-4.34571h.8584Z"/><path class="cls-2" d="M267.52148,254.33164c0,1.1875.56055,1.87012,1.59473,1.87012a1.7798,1.7798,0,0,0,1.41992-.61621l.53907.47265a2.4794,2.4794,0,0,1-1.98047.83692c-1.43067,0-2.36524-.8584-2.36524-2.77246,0-1.75.84668-2.77247,2.22168-2.77247,1.39746,0,2.22266,1.01172,2.22266,2.61817v.36328Zm2.69532-1.49609a1.38983,1.38983,0,0,0-2.53028,0,2.26456,2.26456,0,0,0-.165.90136h2.86036A2.28174,2.28174,0,0,0,270.2168,252.83555Z"/><path class="cls-2" d="M278.65332,253.60508h-2.0791v3.22363h-.83692v-7.833h2.916a2.30743,2.30743,0,1,1,0,4.60938Zm-.07715-3.86133h-2.00195V252.857h2.00195a1.55993,1.55993,0,1,0,0-3.11328Z"/><path class="cls-2" d="M283.00781,254.33164c0,1.1875.56055,1.87012,1.59473,1.87012a1.77981,1.77981,0,0,0,1.41992-.61621l.53906.47265a2.47937,2.47937,0,0,1-1.98047.83692c-1.43066,0-2.36523-.8584-2.36523-2.77246,0-1.75.84668-2.77247,2.22168-2.77247,1.39746,0,2.22266,1.01172,2.22266,2.61817v.36328Zm2.69531-1.49609a1.38982,1.38982,0,0,0-2.53027,0,2.26456,2.26456,0,0,0-.165.90136h2.86035A2.28157,2.28157,0,0,0,285.70312,252.83555Z"/><path class="cls-2" d="M291.35645,252.4498a1.13278,1.13278,0,0,0-.93555-.3955,1.32168,1.32168,0,0,0-1.29785,1.45214v3.32227h-.792v-5.41309h.792v.66016a1.81833,1.81833,0,0,1,1.51855-.72559,1.66765,1.66765,0,0,1,1.29785.50586Z"/><path class="cls-2" d="M294.41992,252.0543v4.77441h-.792V252.0543h-.69336v-.60547h.69336v-1.02344a1.31926,1.31926,0,0,1,1.375-1.45215h.57227v.68262h-.42872c-.50586,0-.72656.29687-.72656.792v1.001h1.15528v.60547Z"/><path class="cls-2" d="M300.3916,256.27891a2.26072,2.26072,0,0,1-3.10254,0,3.85156,3.85156,0,0,1,0-4.3125,2.26069,2.26069,0,0,1,3.10254,0,3.85151,3.85151,0,0,1,0,4.3125Zm-.56152-3.82911a1.38653,1.38653,0,0,0-.99024-.3955,1.36063,1.36063,0,0,0-.97851.3955,3.3953,3.3953,0,0,0,0,3.34473,1.36145,1.36145,0,0,0,.97851.39649,1.38735,1.38735,0,0,0,.99024-.39649,3.46929,3.46929,0,0,0,0-3.34473Z"/><path class="cls-2" d="M305.78613,252.4498a1.13276,1.13276,0,0,0-.93554-.3955,1.32168,1.32168,0,0,0-1.29786,1.45214v3.32227h-.792v-5.41309h.792v.66016a1.81836,1.81836,0,0,1,1.51856-.72559,1.66765,1.66765,0,0,1,1.29785.50586Z"/><path class="cls-2" d="M314.58105,256.82871v-3.333a1.34406,1.34406,0,1,0-2.68457-.08886v3.42187h-.792v-3.333a1.26023,1.26023,0,0,0-1.33105-1.4414,1.28081,1.28081,0,0,0-1.35352,1.4414v3.333h-.792v-5.41309h.792v.59473a1.97238,1.97238,0,0,1,1.5293-.66016,1.7845,1.7845,0,0,1,1.66113.90137,2.07271,2.07271,0,0,1,1.78223-.90137,1.97062,1.97062,0,0,1,1.39746.50586,2.014,2.014,0,0,1,.583,1.50684v3.46582Z"/><path class="cls-2" d="M320.38574,256.82871v-.5166a1.90327,1.90327,0,0,1-1.5625.583A1.93142,1.93142,0,0,1,317.294,256.4a1.56306,1.56306,0,0,1-.40625-1.10059c0-.94629.65918-1.5625,1.87011-1.5625h1.62793v-.5166c0-.792-.39648-1.18847-1.38574-1.18847a1.42,1.42,0,0,0-1.36426.61621l-.53906-.49512a2.09687,2.09687,0,0,1,1.91406-.80274c1.45215,0,2.167.627,2.167,1.80372v3.6748Zm0-2.49707h-1.51855c-.81348,0-1.21.33008-1.21.957s.38476.92383,1.24316.92383a1.58141,1.58141,0,0,0,1.21-.36328,1.24628,1.24628,0,0,0,.27539-.93457Z"/><path class="cls-2" d="M326.55371,256.82871v-3.333a1.3407,1.3407,0,1,0-2.67383,0v3.333h-.792v-5.41309h.792v.59473a1.95,1.95,0,0,1,1.51856-.66016,1.8958,1.8958,0,0,1,1.38574.50586,2.00043,2.00043,0,0,1,.56152,1.50684v3.46582Z"/><path class="cls-2" d="M331.37207,256.89512c-1.36426,0-2.39844-.92481-2.39844-2.77246,0-1.84864,1.03418-2.77247,2.39844-2.77247a2.14484,2.14484,0,0,1,1.78223.80274l-.53907.50586a1.48575,1.48575,0,0,0-1.24316-.60449,1.46746,1.46746,0,0,0-1.25488.61621,3.1748,3.1748,0,0,0,0,2.90429,1.46747,1.46747,0,0,0,1.25488.61622,1.49823,1.49823,0,0,0,1.24316-.61622l.53907.51661A2.14306,2.14306,0,0,1,331.37207,256.89512Z"/><path class="cls-2" d="M335.10449,254.33164c0,1.1875.56055,1.87012,1.59473,1.87012a1.77981,1.77981,0,0,0,1.41992-.61621l.53906.47265a2.47937,2.47937,0,0,1-1.98047.83692c-1.43066,0-2.36523-.8584-2.36523-2.77246,0-1.75.84668-2.77247,2.22168-2.77247,1.39746,0,2.22266,1.01172,2.22266,2.61817v.36328Zm2.69531-1.49609a1.38982,1.38982,0,0,0-2.53027,0,2.26456,2.26456,0,0,0-.165.90136h2.86035A2.28157,2.28157,0,0,0,337.7998,252.83555Z"/><line class="cls-3" x1="30.04785" y1="216.86771" x2="459.5" y2="216.86771"/><line class="cls-4" x1="29.54785" y1="193.53437" x2="459" y2="193.53437"/><line class="cls-4" x1="29.54785" y1="170.20104" x2="459" y2="170.20104"/><line class="cls-4" x1="29.54785" y1="146.86771" x2="459" y2="146.86771"/><line class="cls-4" x1="29.54785" y1="123.53437" x2="459" y2="123.53437"/><line class="cls-4" x1="29.54785" y1="30.20104" x2="459" y2="30.20104"/><line class="cls-4" x1="29.54785" y1="76.86771" x2="459" y2="76.86771"/><line class="cls-4" x1="29.54785" y1="53.53437" x2="459" y2="53.53437"/><line class="cls-4" x1="29.54785" y1="100.20104" x2="459" y2="100.20104"/><line class="cls-4" x1="29.54785" y1="6.86771" x2="459" y2="6.86771"/><line class="cls-3" x1="30.04785" y1="215.86771" x2="30.04785" y2="6.86771"/><path class="cls-5" d="M102.95312,114.73789a2.4125,2.4125,0,0,1-2.54882-2.458v-4.71777h1.08008v4.668a1.47549,1.47549,0,1,0,2.94824,0v-4.668h1.0791v4.71777A2.42059,2.42059,0,0,1,102.95312,114.73789Z"/><path class="cls-5" d="M110.68066,114.28867a1.7311,1.7311,0,0,1-1.22949.44922,1.57646,1.57646,0,0,1-1.3291-.5791v2.56836h-1.01953v-7.11621h.999v.54a1.55943,1.55943,0,0,1,1.33985-.59961,1.756,1.756,0,0,1,1.23925.44922,4.3217,4.3217,0,0,1,0,4.28808Zm-1.499-3.82812c-.91992,0-1.05957.77929-1.05957,1.67871,0,.90039.13965,1.68945,1.05957,1.68945.91895,0,1.04883-.78906,1.04883-1.68945C110.23047,111.23984,110.10059,110.46055,109.18164,110.46055Z"/><path class="cls-5" d="M116.34082,114.67832a1.31866,1.31866,0,0,1-1.38867-1.40918v-2.78809h-.58008v-.78027h.58008v-1.53906h1.01953v1.53906h.97949v.78027h-.97949v2.73829a.51532.51532,0,0,0,.55957.58984h.41992v.86914Z"/><path class="cls-5" d="M121.53418,114.13828a2.2116,2.2116,0,0,1-3.02832,0,3.61414,3.61414,0,0,1,0-3.9873,2.2116,2.2116,0,0,1,3.02832,0,3.60922,3.60922,0,0,1,0,3.9873Zm-.76953-3.38769a1.02892,1.02892,0,0,0-.749-.29,1.00989,1.00989,0,0,0-.74023.29,2.93469,2.93469,0,0,0,0,2.77832,1.01732,1.01732,0,0,0,.74023.2998,1.03624,1.03624,0,0,0,.749-.2998,2.92754,2.92754,0,0,0,0-2.77832Z"/><path class="cls-5" d="M127.56445,114.73789a2.03642,2.03642,0,0,1-2.18847-2.06836,1.88126,1.88126,0,0,1,.97949-1.66894,1.73621,1.73621,0,0,1-.85938-1.5293,2.07653,2.07653,0,0,1,4.14746,0,1.73621,1.73621,0,0,1-.85937,1.5293,1.88126,1.88126,0,0,1,.97949,1.66894A2.04476,2.04476,0,0,1,127.56445,114.73789Zm0-3.27734a1.18417,1.18417,0,1,0,1.16993,1.18847A1.16845,1.16845,0,0,0,127.56445,111.46055Zm0-3.04883a1.03466,1.03466,0,0,0-1.04883,1.08984,1.05449,1.05449,0,1,0,2.1084,0A1.04266,1.04266,0,0,0,127.56445,108.41172Z"/><path class="cls-5" d="M133.0332,114.74863a1.9797,1.9797,0,0,1-2.17871-1.999H131.874a1.071,1.071,0,0,0,1.15918,1.0791,1.10166,1.10166,0,0,0,1.15918-1.17969,1.06456,1.06456,0,0,0-1.18945-1.16894H132.833v-.88965h.16992a.97451.97451,0,0,0,1.08008-1.0791,1.06033,1.06033,0,0,0-2.11914-.08008h-1.01953a1.9747,1.9747,0,0,1,2.08886-1.93945,1.94227,1.94227,0,0,1,2.06836,1.98925,1.5637,1.5637,0,0,1-.88867,1.51954,1.67039,1.67039,0,0,1,.999,1.67871A2.00035,2.00035,0,0,1,133.0332,114.74863Z"/><path class="cls-5" d="M140.168,114.67832l-1.54883-2.72852-1.54,2.72852h-1.23926l2.19922-3.64844-2.05859-3.46777h1.23926l1.39941,2.54883,1.40918-2.54883h1.23926l-2.05957,3.46777,2.209,3.64844Z"/><line class="cls-6" x1="121.44866" y1="104.86851" x2="121.44866" y2="33.92258"/><polygon class="cls-5" points="126.435 35.382 121.449 26.746 116.462 35.382 126.435 35.382"/><line class="cls-6" x1="121.44865" y1="189.38144" x2="121.44865" y2="119.13148"/><path class="cls-5" d="M268.55078,69.59434a2.41251,2.41251,0,0,1-2.54883-2.458V62.41855H267.082v4.668a1.47549,1.47549,0,1,0,2.94824,0v-4.668h1.07911v4.71778A2.42059,2.42059,0,0,1,268.55078,69.59434Z"/><path class="cls-5" d="M276.27832,69.14512a1.73116,1.73116,0,0,1-1.22949.44922,1.57643,1.57643,0,0,1-1.3291-.57911v2.56836H272.7002V64.46738h.999v.54a1.55942,1.55942,0,0,1,1.33984-.59961,1.756,1.756,0,0,1,1.23926.44922,3.01886,3.01886,0,0,1,.56934,2.13867A3.04568,3.04568,0,0,1,276.27832,69.14512Zm-1.499-3.82813c-.91992,0-1.05957.7793-1.05957,1.67871,0,.90039.13965,1.68946,1.05957,1.68946.91894,0,1.04882-.78907,1.04882-1.68946C275.82812,66.09629,275.69824,65.317,274.7793,65.317Z"/><path class="cls-5" d="M281.93848,69.53477a1.31867,1.31867,0,0,1-1.38868-1.40918V65.3375h-.58007v-.78027h.58007V63.01816h1.01954v1.53907h.97949v.78027h-.97949v2.73828a.51531.51531,0,0,0,.55957.58984h.41992v.86915Z"/><path class="cls-5" d="M287.13184,68.99473a2.2116,2.2116,0,0,1-3.02832,0,3.61416,3.61416,0,0,1,0-3.98731,2.2116,2.2116,0,0,1,3.02832,0,3.61416,3.61416,0,0,1,0,3.98731Zm-.76954-3.3877a1.02889,1.02889,0,0,0-.749-.29,1.00989,1.00989,0,0,0-.74023.29,2.93469,2.93469,0,0,0,0,2.77832,1.01733,1.01733,0,0,0,.74023.29981,1.03622,1.03622,0,0,0,.749-.29981,2.92746,2.92746,0,0,0,0-2.77832Z"/><path class="cls-5" d="M291.13379,69.53477v-.90918l2.73828-3.32813a1.38037,1.38037,0,0,0,.37988-.95019,1.04541,1.04541,0,1,0-2.08886.0205h-1.01954a1.94118,1.94118,0,0,1,2.06934-2.00879,1.91005,1.91005,0,0,1,2.05859,1.999,2.22093,2.22093,0,0,1-.66992,1.53906l-2.22851,2.72852h2.89843v.90918Z"/><path class="cls-5" d="M300.57129,69.53477l-1.54883-2.72852-1.54,2.72852h-1.23926l2.19922-3.64844-2.05859-3.46778h1.23926l1.39941,2.54883,1.40918-2.54883h1.23926l-2.05957,3.46778,2.209,3.64844Z"/><line class="cls-6" x1="284.44952" y1="59.676" x2="284.44952" y2="33.92258"/><polygon class="cls-5" points="289.436 35.382 284.45 26.746 279.463 35.382 289.436 35.382"/><line class="cls-6" x1="284.4495" y1="109.01937" x2="284.4495" y2="73.93895"/><path class="cls-2" d="M95.80859,237.24473a3.55842,3.55842,0,0,1-2.5498-1.03614c-.93848-.93847-.93848-1.91894-.93848-4.03418s0-3.0957.93848-4.03418a3.5553,3.5553,0,0,1,2.5498-1.03711,3.365,3.365,0,0,1,3.46,2.96973H98.17578a2.35528,2.35528,0,0,0-2.36719-2.0166,2.40313,2.40313,0,0,0-1.72363.70019c-.62988.64454-.70019,1.33008-.70019,3.418,0,2.08692.07031,2.77344.70019,3.417A2.44337,2.44337,0,0,0,98.2041,234.275h1.06445A3.365,3.365,0,0,1,95.80859,237.24473Z"/><path class="cls-2" d="M105.18848,233.05625H102.542v4.10449h-1.06543v-9.97363h3.71192a2.9381,2.9381,0,1,1,0,5.86914Zm-.09766-4.916H102.542v3.96387h2.54883a1.98614,1.98614,0,1,0,0-3.96387Z"/><path class="cls-2" d="M113.49023,237.24473a3.29253,3.29253,0,0,1-3.47363-3.376v-6.68164h1.06445v6.59766a2.41817,2.41817,0,1,0,4.833,0v-6.59766h1.06446v6.68164A3.30407,3.30407,0,0,1,113.49023,237.24473Z"/><path class="cls-2" d="M128.583,236.20859a3.65423,3.65423,0,0,1-5.09863,0c-.93848-.93847-.93848-1.91894-.93848-4.03418s0-3.0957.93848-4.03418a3.65178,3.65178,0,0,1,5.09863,0c.93847.93848.93847,1.91895.93847,4.03418S129.52148,235.27012,128.583,236.20859Zm-.82617-7.43847a2.43661,2.43661,0,0,0-3.44629,0c-.62989.64453-.7002,1.3164-.7002,3.40429,0,2.08692.07031,2.75879.7002,3.40332a2.43424,2.43424,0,0,0,3.44629,0c.62988-.64453.70019-1.3164.70019-3.40332C128.457,230.08652,128.38672,229.41465,127.75684,228.77012Z"/><path class="cls-2" d="M136.11426,237.16074V232.9166a1.7065,1.7065,0,1,0-3.40332,0v4.24414h-1.00879v-6.8916h1.00879v.75586a2.48537,2.48537,0,0,1,1.93261-.83984,2.41172,2.41172,0,0,1,1.76465.64453,2.54473,2.54473,0,0,1,.71485,1.91894v4.41211Z"/><path class="cls-2" d="M141.15234,237.16074a1.64208,1.64208,0,0,1-1.751-1.835v-8.13867h1.00879v8.09668c0,.67187.22363,1.00879.9248,1.00879h.5459v.86816Z"/><path class="cls-2" d="M145.15723,238.82773a2.02477,2.02477,0,0,1-.49024.8125,1.89543,1.89543,0,0,1-1.34472.47657h-.43457v-.89649h.30859c.70019,0,.91016-.22461,1.13476-.85449l.49024-1.34473-2.47949-6.75195h1.09277l1.89063,5.5332,1.87695-5.5332h1.09277Z"/><polyline class="cls-7" points="100 214.368 100 216.368 140 216.368 140 214.368 100 214.368"/><path class="cls-2" d="M115.83105,206.36777v-8.41894l-1.94726,1.709v-1.583l1.94726-1.68066h1.42872v9.97363Z"/><path class="cls-2" d="M125.52734,206.36777l-2.17089-3.82422-2.15723,3.82422h-1.73731l3.082-5.1123-2.88575-4.86133h1.73731l1.96094,3.57227,1.9746-3.57227h1.73731l-2.88574,4.86133,3.0957,5.1123Z"/><path class="cls-2" d="M172.4541,236.82969h-.86816l-3.27735-9.97364h1.12012l2.5918,8.06836,2.59082-8.06836h1.12109Z"/><path class="cls-2" d="M179.31445,236.82969v-8.85254l-1.86328,1.63867v-1.14844l1.86328-1.61133h1.00782v9.97364Z"/><path class="cls-2" d="M186.52441,236.91367a2.62937,2.62937,0,0,1-2.73144-2.74512v-4.65039a2.73148,2.73148,0,1,1,5.46289,0v4.65039A2.62937,2.62937,0,0,1,186.52441,236.91367Zm1.72266-7.33984a1.73185,1.73185,0,1,0-3.44629,0v4.53808a1.73185,1.73185,0,1,0,3.44629,0Z"/><path class="cls-2" d="M193.69238,236.91367a2.62937,2.62937,0,0,1-2.73144-2.74512v-4.65039a2.73148,2.73148,0,1,1,5.46289,0v4.65039A2.62937,2.62937,0,0,1,193.69238,236.91367Zm1.72266-7.33984a1.73185,1.73185,0,1,0-3.44629,0v4.53808a1.73185,1.73185,0,1,0,3.44629,0Z"/><path class="cls-2" d="M204.06543,236.92734a2.64972,2.64972,0,0,1-2.92773-2.63281h1.00878a1.76121,1.76121,0,0,0,1.91895,1.73633,1.82576,1.82576,0,0,0,1.91895-1.93262,1.733,1.733,0,0,0-1.96094-1.93262h-.21v-.88281h.21a1.60552,1.60552,0,0,0,1.77929-1.80664,1.66986,1.66986,0,0,0-1.7373-1.82129,1.69193,1.69193,0,0,0-1.793,1.667h-1.00781a2.651,2.651,0,0,1,2.80078-2.56347,2.58458,2.58458,0,0,1,2.74609,2.70312,2.23487,2.23487,0,0,1-1.34472,2.21289,2.33953,2.33953,0,0,1,1.52636,2.4375A2.70425,2.70425,0,0,1,204.06543,236.92734Z"/><path class="cls-2" d="M208.66992,236.82969v-.89649l3.93653-5.001a2.2787,2.2787,0,0,0,.56054-1.47071,1.73842,1.73842,0,1,0-3.47461.01465h-1.00781a2.59186,2.59186,0,0,1,2.74512-2.7041,2.55888,2.55888,0,0,1,2.74511,2.68945,2.98467,2.98467,0,0,1-.79785,2.01758l-3.48828,4.4541h4.28613v.89649Z"/><path class="cls-2" d="M222.09863,235.76523a3.65644,3.65644,0,0,1-5.21093.11231c-.93848-.93848-.93848-1.919-.93848-4.03418s0-3.0957.93848-4.03418a3.53077,3.53077,0,0,1,2.5498-1.03711,3.39845,3.39845,0,0,1,3.4873,2.9834h-1.06445a2.45319,2.45319,0,0,0-4.14648-1.31641c-.62989.64453-.7002,1.31641-.7002,3.4043,0,2.08691.07031,2.77344.7002,3.417a2.4,2.4,0,0,0,1.72363.70117,2.43153,2.43153,0,0,0,1.89062-.85449,2.61483,2.61483,0,0,0,.56055-1.80762v-.75586H219.4375v-.93847h3.51562v1.583A3.44573,3.44573,0,0,1,222.09863,235.76523Z"/><path class="cls-2" d="M229.168,236.82969h-3.88086v-9.97364H229.042a2.63368,2.63368,0,0,1,2.94141,2.66211,2.28587,2.28587,0,0,1-1.4707,2.18457,2.414,2.414,0,0,1,1.625,2.36719A2.64271,2.64271,0,0,1,229.168,236.82969Zm-.21094-9.02051h-2.60449v3.46H228.957c1.10742,0,1.96192-.54687,1.96192-1.7373S230.06445,227.80918,228.957,227.80918Zm.11231,4.41211h-2.7168v3.65625h2.7168a1.83575,1.83575,0,1,0,0-3.65625Z"/><polyline class="cls-8" points="186 190.652 186 216.426 226 216.426 226 190.652 186 190.652"/><path class="cls-9" d="M198.99805,208.38926v-8.418l-1.94727,1.709v-1.583l1.94727-1.68067h1.42773v9.97266Z"/><path class="cls-9" d="M205.30273,208.38926v-8.418l-1.94726,1.709v-1.583l1.94726-1.68067h1.42969v9.97266Z"/><path class="cls-9" d="M214.99805,208.38926l-2.16993-3.82422-2.1582,3.82422h-1.73633l3.082-5.11231-2.88671-4.86035h1.73828l1.96093,3.57129,1.97461-3.57129h1.73633L213.6543,203.277l3.0957,5.11231Z"/><path class="cls-2" d="M255.84277,236.82969l-.79882-2.25489h-4.35547l-.79883,2.25489h-1.13477l3.66992-9.97364h.89649l3.65625,9.97364Zm-2.95507-8.44629-1.87793,5.2666h3.72656Z"/><path class="cls-2" d="M260.61523,236.82969v-8.85254l-1.86328,1.63867v-1.14844l1.86328-1.61133h1.00782v9.97364Z"/><path class="cls-2" d="M267.8252,236.91367a2.62937,2.62937,0,0,1-2.73145-2.74512v-4.65039a2.73148,2.73148,0,1,1,5.46289,0v4.65039A2.62937,2.62937,0,0,1,267.8252,236.91367Zm1.72265-7.33984a1.73185,1.73185,0,1,0-3.44629,0v4.53808a1.73185,1.73185,0,1,0,3.44629,0Z"/><path class="cls-2" d="M274.99316,236.91367a2.62937,2.62937,0,0,1-2.73144-2.74512v-4.65039a2.73148,2.73148,0,1,1,5.46289,0v4.65039A2.62937,2.62937,0,0,1,274.99316,236.91367Zm1.72266-7.33984a1.73185,1.73185,0,1,0-3.44629,0v4.53808a1.73185,1.73185,0,1,0,3.44629,0Z"/><path class="cls-2" d="M287.38379,235.24668v1.583h-.99512v-1.583h-3.97754v-.91016l3.59961-7.48047h1.0791l-3.60058,7.48047h2.89941v-2.83008h.99512v2.83008h1.21875v.91016Z"/><path class="cls-2" d="M292.67383,236.91367a2.62937,2.62937,0,0,1-2.73145-2.74512v-4.65039a2.73148,2.73148,0,1,1,5.46289,0v4.65039A2.62936,2.62936,0,0,1,292.67383,236.91367Zm1.72265-7.33984a1.73185,1.73185,0,1,0-3.44628,0v4.53808a1.73185,1.73185,0,1,0,3.44628,0Z"/><path class="cls-2" d="M303.39941,235.76523a3.65644,3.65644,0,0,1-5.21093.11231c-.93848-.93848-.93848-1.919-.93848-4.03418s0-3.0957.93848-4.03418a3.53077,3.53077,0,0,1,2.5498-1.03711,3.39846,3.39846,0,0,1,3.48731,2.9834h-1.06446a2.45319,2.45319,0,0,0-4.14648-1.31641c-.62988.64453-.7002,1.31641-.7002,3.4043,0,2.08691.07032,2.77344.7002,3.417a2.4,2.4,0,0,0,1.72363.70117,2.43156,2.43156,0,0,0,1.89063-.85449,2.61488,2.61488,0,0,0,.56054-1.80762v-.75586h-2.45117v-.93847h3.51563v1.583A3.44573,3.44573,0,0,1,303.39941,235.76523Z"/><path class="cls-2" d="M310.46875,236.82969h-3.88086v-9.97364h3.75488a2.63368,2.63368,0,0,1,2.94141,2.66211,2.28587,2.28587,0,0,1-1.4707,2.18457,2.414,2.414,0,0,1,1.625,2.36719A2.64271,2.64271,0,0,1,310.46875,236.82969Zm-.21094-9.02051h-2.60449v3.46h2.60449c1.10742,0,1.96192-.54687,1.96192-1.7373S311.36523,227.80918,310.25781,227.80918Zm.11231,4.41211h-2.7168v3.65625h2.7168a1.83575,1.83575,0,1,0,0-3.65625Z"/><path class="cls-2" d="M336.68848,236.82969l-.79883-2.25489h-4.35547l-.79883,2.25489h-1.13476l3.66992-9.97364h.89648l3.65625,9.97364Zm-2.95508-8.44629-1.87793,5.2666H335.582Z"/><path class="cls-2" d="M341.46094,236.82969v-8.85254l-1.86328,1.63867v-1.14844l1.86328-1.61133h1.00781v9.97364Z"/><path class="cls-2" d="M348.6709,236.91367a2.62937,2.62937,0,0,1-2.73145-2.74512v-4.65039a2.73148,2.73148,0,1,1,5.46289,0v4.65039A2.62936,2.62936,0,0,1,348.6709,236.91367Zm1.72265-7.33984a1.73185,1.73185,0,1,0-3.44628,0v4.53808a1.73185,1.73185,0,1,0,3.44628,0Z"/><path class="cls-2" d="M355.83887,236.91367a2.62937,2.62937,0,0,1-2.73145-2.74512v-4.65039a2.73148,2.73148,0,1,1,5.46289,0v4.65039A2.62937,2.62937,0,0,1,355.83887,236.91367Zm1.72265-7.33984a1.73185,1.73185,0,1,0-3.44629,0v4.53808a1.73185,1.73185,0,1,0,3.44629,0Z"/><path class="cls-2" d="M366.35254,236.91367a2.79706,2.79706,0,0,1-2.94141-2.8291,2.71536,2.71536,0,0,1,1.498-2.42383,2.43731,2.43731,0,0,1-1.30273-2.21289,2.74652,2.74652,0,0,1,5.49121,0,2.42434,2.42434,0,0,1-1.28907,2.21289,2.70286,2.70286,0,0,1,1.48536,2.42383A2.79761,2.79761,0,0,1,366.35254,236.91367Zm0-4.79a1.94683,1.94683,0,1,0,1.93262,1.94629A1.905,1.905,0,0,0,366.35254,232.12363Zm0-4.45508a1.70042,1.70042,0,0,0-1.73731,1.793,1.73733,1.73733,0,1,0,3.47364,0A1.69965,1.69965,0,0,0,366.35254,227.66855Z"/><path class="cls-2" d="M373.51953,236.91367a2.62936,2.62936,0,0,1-2.73144-2.74512v-4.65039a2.73148,2.73148,0,1,1,5.46289,0v4.65039A2.62937,2.62937,0,0,1,373.51953,236.91367Zm1.72266-7.33984a1.73185,1.73185,0,1,0-3.44629,0v4.53808a1.73185,1.73185,0,1,0,3.44629,0Z"/><path class="cls-2" d="M384.24512,235.76523a3.65645,3.65645,0,0,1-5.21094.11231c-.93848-.93848-.93848-1.919-.93848-4.03418s0-3.0957.93848-4.03418a3.53079,3.53079,0,0,1,2.5498-1.03711,3.39846,3.39846,0,0,1,3.48731,2.9834h-1.06445a2.4532,2.4532,0,0,0-4.14649-1.31641c-.62988.64453-.70019,1.31641-.70019,3.4043,0,2.08691.07031,2.77344.70019,3.417a2.4,2.4,0,0,0,1.72363.70117,2.43155,2.43155,0,0,0,1.89063-.85449,2.61488,2.61488,0,0,0,.56055-1.80762v-.75586H381.584v-.93847h3.51563v1.583A3.44573,3.44573,0,0,1,384.24512,235.76523Z"/><path class="cls-2" d="M391.31445,236.82969h-3.88086v-9.97364h3.75489a2.63368,2.63368,0,0,1,2.9414,2.66211,2.28587,2.28587,0,0,1-1.4707,2.18457,2.414,2.414,0,0,1,1.625,2.36719A2.64271,2.64271,0,0,1,391.31445,236.82969Zm-.21093-9.02051H388.499v3.46h2.6045c1.10742,0,1.96191-.54687,1.96191-1.7373S392.21094,227.80918,391.10352,227.80918Zm.1123,4.41211H388.499v3.65625h2.7168a1.83575,1.83575,0,1,0,0-3.65625Z"/><polyline class="cls-10" points="342 23.452 342 216.426 382 216.426 382 23.452 342 23.452"/><path class="cls-9" d="M353.86328,42.1832a2.85366,2.85366,0,0,1-3.06738-2.89941,2.63766,2.63766,0,0,1,1.373-2.33887,2.43281,2.43281,0,0,1-1.20508-2.14355,2.91065,2.91065,0,0,1,5.81347,0,2.43282,2.43282,0,0,1-1.20507,2.14355,2.6358,2.6358,0,0,1,1.373,2.33887A2.86573,2.86573,0,0,1,353.86328,42.1832Zm0-4.59375a1.65979,1.65979,0,1,0,1.63965,1.666A1.63826,1.63826,0,0,0,353.86328,37.58945Zm0-4.27246a1.45009,1.45009,0,0,0-1.4707,1.52637,1.47842,1.47842,0,1,0,2.95605,0A1.46122,1.46122,0,0,0,353.86328,33.317Z"/><path class="cls-9" d="M361.5166,42.19785a2.77478,2.77478,0,0,1-3.05371-2.80176h1.42969a1.501,1.501,0,0,0,1.624,1.5127,1.544,1.544,0,0,0,1.625-1.65332,1.492,1.492,0,0,0-1.667-1.63867h-.23828V36.3707h.23828A1.36539,1.36539,0,0,0,362.9873,34.858a1.48544,1.48544,0,0,0-2.96875-.11231h-1.42871a2.76661,2.76661,0,0,1,2.92676-2.71777A2.723,2.723,0,0,1,364.417,34.816a2.18973,2.18973,0,0,1-1.24707,2.1289,2.34172,2.34172,0,0,1,1.40039,2.35352A2.80307,2.80307,0,0,1,361.5166,42.19785Z"/><path class="cls-9" d="M371.49609,42.09922,369.3252,38.275,367.168,42.09922h-1.73731l3.082-5.11231L365.627,32.12656h1.73731l1.96094,3.57129,1.9746-3.57129h1.73731l-2.88574,4.86035,3.0957,5.11231Z"/><polyline class="cls-11" points="264.002 114.019 264.002 216.427 304.002 216.427 304.002 114.019 264.002 114.019"/><path class="cls-9" d="M278.0957,131.10312v1.499H276.709v-1.499H272.6748v-1.33007l3.51563-7.14356h1.541l-3.502,7.14356H276.709v-2.3252h1.38672v2.3252h1.06446v1.33007Z"/><path class="cls-9" d="M285.9668,131.10312v1.499h-1.38672v-1.499H280.5459v-1.33007l3.51562-7.14356h1.541l-3.50195,7.14356h2.47949v-2.3252h1.38672v2.3252h1.06445v1.33007Z"/><path class="cls-9" d="M293.92773,132.60215l-2.17089-3.82422-2.15723,3.82422H287.8623l3.082-5.11231-2.88575-4.86035h1.73731l1.96094,3.57129,1.97461-3.57129h1.7373l-2.88574,4.86035,3.0957,5.11231Z"/></svg>