<svg id="Layer_1" data-name="Layer 1" xmlns="http://www.w3.org/2000/svg" width="462" height="272" viewBox="0 0 462 272"><defs><style>.cls-1{fill:#1a1a1a;}.cls-2,.cls-3{fill:none;}.cls-2{stroke:#999;stroke-linecap:square;}.cls-3{stroke:#ddd;stroke-miterlimit:10;}.cls-4{fill:#b9db81;}.cls-5{fill:#fff;}.cls-6{fill:#a9d269;}.cls-7{fill:#99ca4f;}.cls-8{fill:#88c133;}.cls-9{fill:#76b900;}</style></defs><path class="cls-1" d="M160.31348,236.831h-.86914l-3.27735-9.97461h1.12012l2.5918,8.06836,2.59082-8.06836h1.12109Z"/><path class="cls-1" d="M167.17285,236.831v-8.85351l-1.86328,1.63867v-1.14844l1.86328-1.61133h1.00781V236.831Z"/><path class="cls-1" d="M174.38281,236.915a2.63016,2.63016,0,0,1-2.73144-2.7461v-4.65039a2.73148,2.73148,0,1,1,5.46289,0v4.65039A2.63017,2.63017,0,0,1,174.38281,236.915Zm1.72266-7.33985a1.73194,1.73194,0,1,0-3.44629,0v4.53711a1.73194,1.73194,0,1,0,3.44629,0Z"/><path class="cls-1" d="M181.55078,236.915a2.63016,2.63016,0,0,1-2.73144-2.7461v-4.65039a2.73148,2.73148,0,1,1,5.46289,0v4.65039A2.63017,2.63017,0,0,1,181.55078,236.915Zm1.72266-7.33985a1.73194,1.73194,0,1,0-3.44629,0v4.53711a1.73194,1.73194,0,1,0,3.44629,0Z"/><path class="cls-1" d="M161.01758,247.831v-.64062l2.80859-3.56836a1.62336,1.62336,0,0,0,.39942-1.04883,1.24006,1.24006,0,1,0-2.47852.00977h-.71973a1.84857,1.84857,0,0,1,1.959-1.92774,1.82455,1.82455,0,0,1,1.959,1.918,2.1276,2.1276,0,0,1-.56933,1.43945l-2.48926,3.17774h3.05859v.64062Z"/><path class="cls-1" d="M168.06641,247.88959a1.87613,1.87613,0,0,1-1.94922-1.959v-3.3164a1.94924,1.94924,0,1,1,3.89843,0v3.3164A1.87613,1.87613,0,0,1,168.06641,247.88959Zm1.22949-5.23633a1.2357,1.2357,0,1,0-2.459,0v3.23828a1.2357,1.2357,0,1,0,2.459,0Z"/><path class="cls-1" d="M173.15625,247.831v-6.3164l-1.3291,1.168v-.81835l1.3291-1.1504h.71973V247.831Z"/><path class="cls-1" d="M177.93652,247.831h-.75976l2.46875-6.47656H177.166v1.11914h-.709V240.7138h3.94727v.64063Z"/><path class="cls-1" d="M89.01074,233.05658H86.36328v4.10449H85.29785v-9.97363h3.71289a2.93805,2.93805,0,1,1,0,5.86914Zm-.09863-4.916H86.36328v3.96387h2.54883a1.98614,1.98614,0,1,0,0-3.96387Z"/><path class="cls-1" d="M96.14941,237.16107v-8.85254l-1.86328,1.63867v-1.14843l1.86328-1.61133h1.00782v9.97363Z"/><path class="cls-1" d="M103.35938,237.24505a2.62937,2.62937,0,0,1-2.73145-2.74511v-4.65039a2.73148,2.73148,0,1,1,5.46289,0v4.65039A2.62936,2.62936,0,0,1,103.35938,237.24505Zm1.72265-7.33984a1.73185,1.73185,0,1,0-3.44629,0v4.53809a1.73185,1.73185,0,1,0,3.44629,0Z"/><path class="cls-1" d="M110.52734,237.24505a2.62936,2.62936,0,0,1-2.73144-2.74511v-4.65039a2.73148,2.73148,0,1,1,5.46289,0v4.65039A2.62937,2.62937,0,0,1,110.52734,237.24505Zm1.72266-7.33984a1.73185,1.73185,0,1,0-3.44629,0v4.53809a1.73185,1.73185,0,1,0,3.44629,0Z"/><path class="cls-1" d="M90.582,248.16107v-.63965l2.80859-3.56836a1.62522,1.62522,0,0,0,.39942-1.04883,1.24005,1.24005,0,1,0-2.47852.00977H90.5918a1.84933,1.84933,0,0,1,1.959-1.92871,1.8253,1.8253,0,0,1,1.959,1.91894,2.12524,2.12524,0,0,1-.56934,1.43848l-2.48926,3.17871h3.0586v.63965Z"/><path class="cls-1" d="M97.63086,248.22064a1.87613,1.87613,0,0,1-1.94922-1.959v-3.31739a1.94924,1.94924,0,1,1,3.89844,0v3.31739A1.87613,1.87613,0,0,1,97.63086,248.22064Zm1.22949-5.23633a1.23569,1.23569,0,1,0-2.459,0v3.23828a1.23561,1.23561,0,1,0,2.459,0Z"/><path class="cls-1" d="M102.7207,248.16107v-6.31641l-1.3291,1.16895v-.81934l1.3291-1.14941h.71973v7.11621Z"/><path class="cls-1" d="M107.89062,248.22064a1.892,1.892,0,0,1-1.97949-2.04883,3.50982,3.50982,0,0,1,.4502-1.59863l1.749-3.52832h.73926l-1.58887,3.19824a1.79644,1.79644,0,0,1,.749-.14941,1.8546,1.8546,0,0,1,1.84961,2.01855A1.94341,1.94341,0,0,1,107.89062,248.22064Zm-.01074-3.51758a1.45171,1.45171,0,1,0,1.25977,1.43946A1.28513,1.28513,0,0,0,107.87988,244.70306Z"/><path class="cls-1" d="M15.57422,222.77045a1.87049,1.87049,0,0,1-1.94336-1.95313V217.5097a1.94338,1.94338,0,1,1,3.88672,0v3.30762A1.8705,1.8705,0,0,1,15.57422,222.77045Zm1.22558-5.22071a1.23181,1.23181,0,1,0-2.45117,0v3.22852a1.23172,1.23172,0,1,0,2.45117,0Z"/><path class="cls-1" d="M9.666,199.1347v-6.29687l-1.32618,1.165v-.81641L9.666,192.04h.71679v7.09472Z"/><path class="cls-1" d="M16.49219,199.1347l-1.72461-2.97949-1.73242,2.97949h-.85743l2.17188-3.63672-2.0332-3.458h.877l1.57422,2.7998L16.3418,192.04h.877l-2.043,3.458,2.19336,3.63672Z"/><path class="cls-1" d="M7.13672,180.27337v-.63769L9.9375,176.079a1.63157,1.63157,0,0,0,.39844-1.04688,1.16757,1.16757,0,0,0-1.23633-1.27539,1.15765,1.15765,0,0,0-1.23438,1.28516H7.14648a1.84422,1.84422,0,0,1,1.95313-1.92285,1.82017,1.82017,0,0,1,1.95312,1.91308,2.12352,2.12352,0,0,1-.56835,1.43555l-2.48047,3.168h3.04882v.63769Z"/><path class="cls-1" d="M16.49023,180.27337l-1.72265-2.97949-1.73438,2.97949h-.85742l2.17188-3.63671-2.03125-3.458h.877l1.57422,2.80078,1.57422-2.80078h.877l-2.043,3.458,2.19141,3.63671Z"/><path class="cls-1" d="M9.28906,161.48236a1.88337,1.88337,0,0,1-2.082-1.874h.7168a1.25235,1.25235,0,0,0,1.36523,1.23632,1.29952,1.29952,0,0,0,1.36524-1.375,1.23408,1.23408,0,0,0-1.39649-1.375H9.10938v-.62793h.14843a1.14191,1.14191,0,0,0,1.26563-1.28515,1.1871,1.1871,0,0,0-1.23438-1.2959,1.20243,1.20243,0,0,0-1.27539,1.18555H7.29492A1.88806,1.88806,0,0,1,9.28906,154.248a1.83849,1.83849,0,0,1,1.95313,1.92286,1.59314,1.59314,0,0,1-.957,1.57519,1.6628,1.6628,0,0,1,1.08593,1.7334A1.9235,1.9235,0,0,1,9.28906,161.48236Z"/><path class="cls-1" d="M16.49219,161.41205l-1.72461-2.97852-1.73242,2.97852h-.85743l2.17188-3.63672-2.0332-3.457h.877l1.57422,2.7998,1.57422-2.7998h.877l-2.043,3.457,2.19336,3.63672Z"/><path class="cls-1" d="M10.57812,141.42572v1.126h-.707v-1.126H7.041v-.64746L9.60156,135.457h.76758l-2.56055,5.32129h2.0625v-2.0127h.707v2.0127h.86719v.64746Z"/><path class="cls-1" d="M16.49219,142.5517l-1.72461-2.9795-1.73242,2.9795h-.85743l2.17188-3.63672-2.0332-3.458h.877l1.57422,2.7998,1.57422-2.7998h.877l-2.043,3.458,2.19336,3.63672Z"/><path class="cls-1" d="M8.71289,85.96771H7.95508l2.46094-6.456H7.94531v1.11523h-.709V78.874h3.9375v.6377Z"/><path class="cls-1" d="M16.49219,85.96771,14.76758,82.9892l-1.73242,2.97851h-.85743L14.34961,82.331l-2.0332-3.457h.877l1.57422,2.79981L16.3418,78.874h.877l-2.043,3.457,2.19336,3.63672Z"/><path class="cls-1" d="M10.63086,123.23138a1.90741,1.90741,0,0,1-1.416.52832,1.99025,1.99025,0,0,1-1.42382-.50781,1.90249,1.90249,0,0,1-.498-1.23535h.7168A1.105,1.105,0,0,0,9.21484,123.122a1.23269,1.23269,0,0,0,.877-.3291,1.97173,1.97173,0,0,0,.38867-1.44434c0-.86719-.168-1.72363-1.19531-1.72363a1.137,1.137,0,0,0-1.17578.69726H7.46289v-3.72656h3.58594v.6377H8.10938v2.252a1.66778,1.66778,0,0,1,1.27539-.48828,1.69261,1.69261,0,0,1,1.22656.44824,2.55675,2.55675,0,0,1,.58789,1.90332A2.47268,2.47268,0,0,1,10.63086,123.23138Z"/><path class="cls-1" d="M16.49219,123.69037l-1.72461-2.9795-1.73242,2.9795h-.85743l2.17188-3.63672-2.0332-3.458h.877l1.57422,2.79981,1.57422-2.79981h.877l-2.043,3.458,2.19336,3.63672Z"/><path class="cls-1" d="M5.26172,10.52337V4.22552l-1.32617,1.166V4.57513L5.26172,3.42865h.7168v7.09472Z"/><path class="cls-1" d="M9.666,10.52337V4.22552l-1.32618,1.166V4.57513L9.666,3.42865h.71679v7.09472Z"/><path class="cls-1" d="M16.49219,10.52337,14.76758,7.54388l-1.73242,2.97949h-.85743l2.17188-3.63671-2.0332-3.458h.877l1.57422,2.80078L16.3418,3.42865h.877l-2.043,3.458,2.19336,3.63671Z"/><path class="cls-1" d="M4.57031,29.3847V23.08783l-1.32617,1.166v-.81738L4.57031,22.291h.7168V29.3847Z"/><path class="cls-1" d="M9.40234,29.44427A1.87023,1.87023,0,0,1,7.459,27.49212V24.18353a1.871,1.871,0,0,1,1.94336-1.95312,1.87,1.87,0,0,1,1.94336,1.95312v3.30859A1.86915,1.86915,0,0,1,9.40234,29.44427Zm1.22657-5.2207a1.23181,1.23181,0,1,0-2.45118,0v3.22852a1.23172,1.23172,0,1,0,2.45118,0Z"/><path class="cls-1" d="M16.49219,29.3847l-1.72461-2.97851L13.03516,29.3847h-.85743L14.34961,25.748l-2.0332-3.457h.877l1.57422,2.79981L16.3418,22.291h.877l-2.043,3.457,2.19336,3.63672Z"/><path class="cls-1" d="M10.96875,44.72845,9.22461,48.246H8.47852l1.59375-3.18848a1.86411,1.86411,0,0,1-2.58985-1.86328,1.93671,1.93671,0,0,1,1.96289-2.10254,1.88665,1.88665,0,0,1,1.97266,2.043A3.50168,3.50168,0,0,1,10.96875,44.72845Zm-1.52344-2.999A1.44758,1.44758,0,1,0,10.69922,43.164,1.26623,1.26623,0,0,0,9.44531,41.72943Z"/><path class="cls-1" d="M16.49219,48.246l-1.72461-2.97949L13.03516,48.246h-.85743l2.17188-3.63672-2.0332-3.458h.877l1.57422,2.79981L16.3418,41.1513h.877l-2.043,3.458L17.36914,48.246Z"/><path class="cls-1" d="M9.34961,67.16693a1.99132,1.99132,0,0,1-2.09375-2.0127A1.931,1.931,0,0,1,8.32227,63.4306a1.73554,1.73554,0,0,1-.92579-1.57422,1.86608,1.86608,0,0,1,1.95313-1.90332,1.86718,1.86718,0,0,1,1.95312,1.90332,1.7256,1.7256,0,0,1-.918,1.57422,1.92279,1.92279,0,0,1,1.05664,1.72363A1.98969,1.98969,0,0,1,9.34961,67.16693Zm0-3.40723a1.3848,1.3848,0,1,0,1.375,1.38477A1.35493,1.35493,0,0,0,9.34961,63.7597Zm0-3.16894a1.20913,1.20913,0,0,0-1.23633,1.27539,1.23571,1.23571,0,1,0,2.4707,0A1.20869,1.20869,0,0,0,9.34961,60.59076Z"/><path class="cls-1" d="M16.49219,67.10736l-1.72461-2.97949-1.73242,2.97949h-.85743l2.17188-3.63672-2.0332-3.458h.877l1.57422,2.79981,1.57422-2.79981h.877l-2.043,3.458,2.19336,3.63672Z"/><path class="cls-1" d="M9.416,104.88861a1.88664,1.88664,0,0,1-1.97266-2.043,3.50174,3.50174,0,0,1,.44922-1.59375l1.74414-3.51758H10.373l-1.584,3.18848a1.78862,1.78862,0,0,1,.74805-.14942,1.84752,1.84752,0,0,1,1.8418,2.0127A1.93671,1.93671,0,0,1,9.416,104.88861Zm-.00977-3.50781a1.44784,1.44784,0,1,0,1.25586,1.43554A1.28152,1.28152,0,0,0,9.40625,101.3808Z"/><path class="cls-1" d="M16.49219,104.829l-1.72461-2.97949L13.03516,104.829h-.85743l2.17188-3.63672-2.0332-3.458h.877l1.57422,2.79981,1.57422-2.79981h.877l-2.043,3.458,2.19336,3.63672Z"/><line class="cls-2" x1="28.66797" y1="216.10694" x2="459" y2="216.10694"/><line class="cls-3" x1="28.16797" y1="197.10694" x2="459" y2="197.10694"/><line class="cls-3" x1="28.16797" y1="178.10694" x2="459" y2="178.10694"/><line class="cls-3" x1="28.16797" y1="159.10694" x2="459" y2="159.10694"/><line class="cls-3" x1="28.16797" y1="140.10694" x2="459" y2="140.10694"/><line class="cls-3" x1="28.16797" y1="64.10694" x2="459" y2="64.10694"/><line class="cls-3" x1="28.16797" y1="83.10694" x2="459" y2="83.10694"/><line class="cls-3" x1="28.16797" y1="7.10694" x2="459" y2="7.10694"/><line class="cls-3" x1="28.16797" y1="26.10694" x2="459" y2="26.10694"/><line class="cls-3" x1="28.16797" y1="45.10694" x2="459" y2="45.10694"/><line class="cls-3" x1="28.16797" y1="102.10694" x2="459" y2="102.10694"/><line class="cls-3" x1="28.16797" y1="121.10694" x2="459" y2="121.10694"/><line class="cls-2" x1="28.66797" y1="216.10694" x2="28.66797" y2="7.10694"/><polyline class="cls-4" points="80 196.62 80 215.607 120 215.607 120 196.62 80 196.62"/><path class="cls-5" d="M95.54492,211.82416v-8.41895l-1.94726,1.709v-1.583l1.94726-1.68067h1.42871v9.97364Z"/><path class="cls-5" d="M105.24121,211.82416l-2.1709-3.82422-2.15722,3.82422H99.17578l3.082-5.11231-2.88574-4.86133h1.73731l1.96093,3.57227,1.97461-3.57227h1.73731l-2.88575,4.86133,3.09571,5.11231Z"/><polyline class="cls-6" points="150 177.633 150 215.607 190 215.607 190 177.633 150 177.633"/><path class="cls-5" d="M162.8877,196.82709V195.5517l3.83789-4.66407a1.9311,1.9311,0,0,0,.53222-1.33105,1.46523,1.46523,0,1,0-2.92773.02832h-1.42871a2.721,2.721,0,0,1,2.89941-2.81543,2.6768,2.6768,0,0,1,2.88574,2.80176,3.11046,3.11046,0,0,1-.93847,2.15722l-3.124,3.82325h4.0625v1.27539Z"/><path class="cls-5" d="M176.1084,196.82709l-2.1709-3.82422-2.15723,3.82422H170.043l3.082-5.11329-2.88574-4.86035h1.7373l1.96094,3.57227,1.97461-3.57227h1.7373l-2.88574,4.86035,3.09571,5.11329Z"/><path class="cls-1" d="M231.24316,236.831H230.374l-3.27734-9.97461h1.12012l2.59179,8.06836,2.59082-8.06836h1.1211Z"/><path class="cls-1" d="M238.10254,236.831v-8.85351l-1.86328,1.63867v-1.14844l1.86328-1.61133h1.00781V236.831Z"/><path class="cls-1" d="M245.3125,236.915a2.63017,2.63017,0,0,1-2.73145-2.7461v-4.65039a2.73149,2.73149,0,1,1,5.4629,0v4.65039A2.63017,2.63017,0,0,1,245.3125,236.915Zm1.72266-7.33985a1.73194,1.73194,0,1,0-3.44629,0v4.53711a1.73194,1.73194,0,1,0,3.44629,0Z"/><path class="cls-1" d="M252.48047,236.915a2.63017,2.63017,0,0,1-2.73145-2.7461v-4.65039a2.73148,2.73148,0,1,1,5.46289,0v4.65039A2.63016,2.63016,0,0,1,252.48047,236.915Zm1.72265-7.33985a1.73193,1.73193,0,1,0-3.44628,0v4.53711a1.73193,1.73193,0,1,0,3.44628,0Z"/><path class="cls-1" d="M231.94727,247.831v-.64062l2.80859-3.56836a1.62335,1.62335,0,0,0,.39941-1.04883,1.24005,1.24005,0,1,0-2.47851.00977H231.957a1.84857,1.84857,0,0,1,1.959-1.92774,1.82455,1.82455,0,0,1,1.959,1.918,2.12757,2.12757,0,0,1-.56934,1.43945l-2.48925,3.17774H235.875v.64062Z"/><path class="cls-1" d="M238.99609,247.88959a1.87613,1.87613,0,0,1-1.94921-1.959v-3.3164a1.94924,1.94924,0,1,1,3.89843,0v3.3164A1.87613,1.87613,0,0,1,238.99609,247.88959Zm1.2295-5.23633a1.2357,1.2357,0,1,0-2.459,0v3.23828a1.2357,1.2357,0,1,0,2.459,0Z"/><path class="cls-1" d="M244.08594,247.831v-6.3164l-1.3291,1.168v-.81835l1.3291-1.1504h.71972V247.831Z"/><path class="cls-1" d="M249.23535,247.88959a1.99535,1.99535,0,0,1-2.09863-2.01758,1.933,1.933,0,0,1,1.06933-1.72852,1.74038,1.74038,0,0,1-.92968-1.58008,1.95966,1.95966,0,0,1,3.918,0,1.7316,1.7316,0,0,1-.919,1.58008A1.924,1.924,0,0,1,251.334,245.872,1.9948,1.9948,0,0,1,249.23535,247.88959Zm0-3.418a1.38968,1.38968,0,1,0,1.37988,1.39062A1.35953,1.35953,0,0,0,249.23535,244.47162Zm0-3.17774a1.21251,1.21251,0,0,0-1.23926,1.2793,1.23962,1.23962,0,1,0,2.47852,0A1.21251,1.21251,0,0,0,249.23535,241.29388Z"/><polyline class="cls-7" points="221 158.612 221 215.607 261 215.607 261 158.612 221 158.612"/><path class="cls-5" d="M236.81738,177.93548a2.77478,2.77478,0,0,1-3.05371-2.80175h1.42871a1.50252,1.50252,0,0,0,1.625,1.51367,1.544,1.544,0,0,0,1.625-1.65332,1.49154,1.49154,0,0,0-1.667-1.63867h-.2373v-1.24707h.2373a1.3654,1.3654,0,0,0,1.5127-1.5127,1.48544,1.48544,0,0,0-2.96875-.1123h-1.42872a2.76643,2.76643,0,0,1,2.92676-2.7168,2.72225,2.72225,0,0,1,2.90039,2.78711,2.1888,2.1888,0,0,1-1.24707,2.1289,2.34346,2.34346,0,0,1,1.40039,2.35352A2.80306,2.80306,0,0,1,236.81738,177.93548Z"/><path class="cls-5" d="M246.79688,177.83783l-2.1709-3.82422-2.15723,3.82422h-1.7373l3.082-5.11328-2.88575-4.86035H242.665l1.96094,3.57226,1.97461-3.57226h1.7373l-2.88574,4.86035,3.0957,5.11328Z"/><path class="cls-1" d="M301.31348,236.831h-.86914l-3.27735-9.97461h1.12012l2.5918,8.06836,2.59082-8.06836h1.12109Z"/><path class="cls-1" d="M308.17285,236.831v-8.85351l-1.86328,1.63867v-1.14844l1.86328-1.61133h1.00781V236.831Z"/><path class="cls-1" d="M315.38281,236.915a2.63016,2.63016,0,0,1-2.73144-2.7461v-4.65039a2.73148,2.73148,0,1,1,5.46289,0v4.65039A2.63017,2.63017,0,0,1,315.38281,236.915Zm1.72266-7.33985a1.73194,1.73194,0,1,0-3.44629,0v4.53711a1.73194,1.73194,0,1,0,3.44629,0Z"/><path class="cls-1" d="M322.55078,236.915a2.63016,2.63016,0,0,1-2.73144-2.7461v-4.65039a2.73148,2.73148,0,1,1,5.46289,0v4.65039A2.63017,2.63017,0,0,1,322.55078,236.915Zm1.72266-7.33985a1.73194,1.73194,0,1,0-3.44629,0v4.53711a1.73194,1.73194,0,1,0,3.44629,0Z"/><path class="cls-1" d="M302.01758,247.831v-.64062l2.80859-3.56836a1.62336,1.62336,0,0,0,.39942-1.04883,1.24006,1.24006,0,1,0-2.47852.00977h-.71973a1.84857,1.84857,0,0,1,1.959-1.92774,1.82455,1.82455,0,0,1,1.959,1.918,2.1276,2.1276,0,0,1-.56933,1.43945l-2.48926,3.17774h3.05859v.64062Z"/><path class="cls-1" d="M309.06641,247.88959a1.87613,1.87613,0,0,1-1.94922-1.959v-3.3164a1.94924,1.94924,0,1,1,3.89843,0v3.3164A1.87613,1.87613,0,0,1,309.06641,247.88959Zm1.22949-5.23633a1.2357,1.2357,0,1,0-2.459,0v3.23828a1.2357,1.2357,0,1,0,2.459,0Z"/><path class="cls-1" d="M314.15625,247.831v-6.3164l-1.3291,1.168v-.81835l1.3291-1.1504h.71973V247.831Z"/><path class="cls-1" d="M320.81543,244.3017l-1.749,3.52929h-.75l1.59863-3.19922a1.86888,1.86888,0,0,1-2.59766-1.86914,1.94206,1.94206,0,0,1,1.96875-2.10742,1.89129,1.89129,0,0,1,1.97852,2.04883A3.50406,3.50406,0,0,1,320.81543,244.3017Zm-1.5293-3.00782a1.45242,1.45242,0,1,0,1.25879,1.43946A1.27115,1.27115,0,0,0,319.28613,241.29388Z"/><polyline class="cls-8" points="291 139.696 291 215.607 331 215.607 331 139.696 291 139.696"/><path class="cls-5" d="M309.03125,157.11224v1.5h-1.38672v-1.5h-4.03418v-1.33008l3.51563-7.14355h1.541l-3.502,7.14355h2.47949V153.457h1.38672v2.32519h1.06445v1.33008Z"/><path class="cls-5" d="M316.99316,158.61224l-2.17089-3.82422-2.15723,3.82422h-1.73731l3.082-5.11328-2.88575-4.86035h1.73731l1.96094,3.57129,1.97461-3.57129h1.7373l-2.88574,4.86035,3.0957,5.11328Z"/><path class="cls-1" d="M374.376,236.831l-.79883-2.25586h-4.35547l-.79883,2.25586h-1.13476l3.66992-9.97461h.89648l3.65625,9.97461Zm-2.95508-8.44726L369.543,233.6513h3.72656Z"/><path class="cls-1" d="M379.14844,236.831v-8.85351l-1.86328,1.63867v-1.14844l1.86328-1.61133h1.00781V236.831Z"/><path class="cls-1" d="M386.3584,236.915a2.63017,2.63017,0,0,1-2.73145-2.7461v-4.65039a2.73148,2.73148,0,1,1,5.46289,0v4.65039A2.63016,2.63016,0,0,1,386.3584,236.915Zm1.72265-7.33985a1.73193,1.73193,0,1,0-3.44628,0v4.53711a1.73193,1.73193,0,1,0,3.44628,0Z"/><path class="cls-1" d="M393.52637,236.915a2.63017,2.63017,0,0,1-2.73145-2.7461v-4.65039a2.73148,2.73148,0,1,1,5.46289,0v4.65039A2.63017,2.63017,0,0,1,393.52637,236.915Zm1.72265-7.33985a1.73194,1.73194,0,1,0-3.44629,0v4.53711a1.73194,1.73194,0,1,0,3.44629,0Z"/><path class="cls-1" d="M372.53809,247.831v-.64062l2.80859-3.56836a1.62335,1.62335,0,0,0,.39941-1.04883,1.24005,1.24005,0,1,0-2.47851.00977h-.71973a1.84857,1.84857,0,0,1,1.959-1.92774,1.82455,1.82455,0,0,1,1.959,1.918,2.12757,2.12757,0,0,1-.56934,1.43945l-2.48925,3.17774h3.05859v.64062Z"/><path class="cls-1" d="M379.58691,247.88959a1.87613,1.87613,0,0,1-1.94921-1.959v-3.3164a1.94924,1.94924,0,1,1,3.89843,0v3.3164A1.87613,1.87613,0,0,1,379.58691,247.88959Zm1.2295-5.23633a1.2357,1.2357,0,1,0-2.459,0v3.23828a1.2357,1.2357,0,1,0,2.459,0Z"/><path class="cls-1" d="M382.77832,247.831v-.64062l2.80859-3.56836a1.62331,1.62331,0,0,0,.39942-1.04883,1.24006,1.24006,0,1,0-2.47852.00977h-.71972a1.84856,1.84856,0,0,1,1.959-1.92774,1.82455,1.82455,0,0,1,1.959,1.918,2.12756,2.12756,0,0,1-.56933,1.43945l-2.48926,3.17774h3.05859v.64062Z"/><path class="cls-1" d="M389.82617,247.88959a1.87613,1.87613,0,0,1-1.94922-1.959v-3.3164a1.94924,1.94924,0,1,1,3.89844,0v3.3164A1.87613,1.87613,0,0,1,389.82617,247.88959Zm1.22949-5.23633a1.2357,1.2357,0,1,0-2.459,0v3.23828a1.23569,1.23569,0,1,0,2.459,0Z"/><polyline class="cls-9" points="362 6.532 362 216.607 402 216.607 402 6.532 362 6.532"/><path class="cls-5" d="M374.34961,26.50482v-8.418l-1.94727,1.709v-1.583l1.94727-1.68067h1.42871v9.97266Z"/><path class="cls-5" d="M380.65527,26.50482v-8.418l-1.94726,1.709v-1.583l1.94726-1.68067H382.084v9.97266Z"/><path class="cls-5" d="M390.35059,26.50482l-2.1709-3.82422-2.15723,3.82422h-1.7373l3.082-5.1123-2.88574-4.86036h1.7373l1.96094,3.57129,1.97461-3.57129h1.7373l-2.88574,4.86036,3.0957,5.1123Z"/><path class="cls-1" d="M157.25488,260.74408v7.085H156.419v-7.085h-2.26661v-.748h5.36914v.748Z"/><path class="cls-1" d="M164.4668,267.829v-3.34473a1.24887,1.24887,0,0,0-1.32032-1.42969,1.277,1.277,0,0,0-1.35351,1.42969V267.829h-.792v-7.833h.792v3.01465a1.93175,1.93175,0,0,1,1.51855-.66016,1.82978,1.82978,0,0,1,1.94727,2.002V267.829Z"/><path class="cls-1" d="M170.19434,263.45013a1.13279,1.13279,0,0,0-.93555-.39551,1.32169,1.32169,0,0,0-1.29785,1.45215V267.829h-.792V262.416h.792v.66016a1.81833,1.81833,0,0,1,1.51855-.72559,1.66765,1.66765,0,0,1,1.29785.50586Z"/><path class="cls-1" d="M175.37207,267.27923a2.26069,2.26069,0,0,1-3.10254,0,3.85156,3.85156,0,0,1,0-4.3125,2.26072,2.26072,0,0,1,3.10254,0,3.85151,3.85151,0,0,1,0,4.3125Zm-.56152-3.8291a1.38656,1.38656,0,0,0-.99024-.39551,1.36064,1.36064,0,0,0-.97851.39551,3.3953,3.3953,0,0,0,0,3.34473,1.36144,1.36144,0,0,0,.97851.39648,1.38736,1.38736,0,0,0,.99024-.39648,3.46936,3.46936,0,0,0,0-3.34473Z"/><path class="cls-1" d="M181.15918,267.829v-.60547a1.98528,1.98528,0,0,1-1.5293.67188,1.92508,1.92508,0,0,1-1.39746-.50684,2.01851,2.01851,0,0,1-.5498-1.51758V262.416h.792v3.334c0,.957.50586,1.4414,1.32031,1.4414a1.28057,1.28057,0,0,0,1.35254-1.4414v-3.334h.792V267.829Z"/><path class="cls-1" d="M185.6875,270.31537a2.38834,2.38834,0,0,1-1.83691-.72559l.5166-.50683a1.66545,1.66545,0,0,0,1.29785.53906c1.0459,0,1.48535-.73731,1.48535-1.66114v-.84667a1.74334,1.74334,0,0,1-1.51758.7041,1.86117,1.86117,0,0,1-1.30957-.48438,4.18276,4.18276,0,0,1,0-4.51074,1.8858,1.8858,0,0,1,1.32031-.47266,1.704,1.704,0,0,1,1.51758.7041V262.416h.78125v5.57813A2.15383,2.15383,0,0,1,185.6875,270.31537Zm.12109-7.26075c-1.17773,0-1.35351,1.01172-1.35351,2.02442,0,1.01172.17578,2.02344,1.35351,2.02344,1.17676,0,1.3418-1.01172,1.3418-2.02344C187.15039,264.06634,186.98535,263.05462,185.80859,263.05462Z"/><path class="cls-1" d="M193.35352,267.829v-3.34473a1.24887,1.24887,0,0,0-1.32032-1.42969,1.277,1.277,0,0,0-1.35351,1.42969V267.829h-.792v-7.833h.792v3.01465a1.93175,1.93175,0,0,1,1.51855-.66016,1.82978,1.82978,0,0,1,1.94727,2.002V267.829Z"/><path class="cls-1" d="M199.69727,267.42181a1.88617,1.88617,0,0,1-1.32032.47364,1.753,1.753,0,0,1-1.52929-.70411V270.249h-.792v-7.833h.792v.63867a1.72473,1.72473,0,0,1,1.52929-.7041,1.88581,1.88581,0,0,1,1.32032.47266,4.33435,4.33435,0,0,1,0,4.59863Zm-1.48536-4.36719c-1.17675,0-1.36425,1.01172-1.36425,2.06836,0,1.05567.1875,2.06836,1.36425,2.06836s1.35352-1.01269,1.35352-2.06836C199.56543,264.06634,199.38867,263.05462,198.21191,263.05462Z"/><path class="cls-1" d="M205.5,267.829v-.60547a1.98528,1.98528,0,0,1-1.5293.67188,1.92508,1.92508,0,0,1-1.39746-.50684,2.01851,2.01851,0,0,1-.5498-1.51758V262.416h.792v3.334c0,.957.50586,1.4414,1.32031,1.4414a1.28057,1.28057,0,0,0,1.35254-1.4414v-3.334h.792V267.829Z"/><path class="cls-1" d="M209.82031,267.829a1.32769,1.32769,0,0,1-1.38672-1.45215v-3.32227H207.752v-.60546h.68164v-1.69434h.792v1.69434h1.15527v.60546h-1.15527v3.29981c0,.49512.23144.793.7373.793h.418v.68164Z"/><path class="cls-1" d="M214.53809,265.23236V264.496h3.01464v.73633Z"/><path class="cls-1" d="M226.75977,267.829l-1.78223-3.47656h-1.88086V267.829h-.83691v-7.833h3.0039a2.11866,2.11866,0,0,1,2.32129,2.17774,2.03238,2.03238,0,0,1-1.70508,2.10156l1.85938,3.55371Zm-1.57325-7.085h-2.08984v2.87109h2.08984a1.4407,1.4407,0,1,0,0-2.87109Z"/><path class="cls-1" d="M229.66113,265.332c0,1.1875.56055,1.87012,1.59473,1.87012a1.77979,1.77979,0,0,0,1.41992-.61622l.53906.47266a2.47936,2.47936,0,0,1-1.98046.83692c-1.43067,0-2.36524-.8584-2.36524-2.77247,0-1.75.84668-2.77246,2.22168-2.77246,1.39746,0,2.22266,1.01172,2.22266,2.61817v.36328Zm2.69532-1.4961a1.38984,1.38984,0,0,0-2.53028,0,2.26465,2.26465,0,0,0-.165.90137h2.86035A2.28185,2.28185,0,0,0,232.35645,263.83587Z"/><path class="cls-1" d="M236.335,267.829a1.29019,1.29019,0,0,1-1.376-1.44141V259.996h.792v6.3584c0,.52832.17675.793.72656.793h.42871v.68164Z"/><path class="cls-1" d="M241.544,267.829v-.5166a1.90327,1.90327,0,0,1-1.5625.583,1.93144,1.93144,0,0,1-1.5293-.49512,1.5631,1.5631,0,0,1-.40625-1.10059c0-.94629.65918-1.5625,1.87012-1.5625H241.544v-.5166c0-.792-.39649-1.18848-1.38575-1.18848a1.42,1.42,0,0,0-1.36425.61621l-.53907-.49511a2.09685,2.09685,0,0,1,1.91407-.80274c1.45214,0,2.167.627,2.167,1.80371V267.829Zm0-2.49707h-1.51856c-.81348,0-1.21.33008-1.21.957s.38477.92383,1.24316.92383a1.58144,1.58144,0,0,0,1.21-.36328,1.24628,1.24628,0,0,0,.2754-.93457Z"/><path class="cls-1" d="M245.749,267.829a1.32769,1.32769,0,0,1-1.38672-1.45215v-3.32227h-.68164v-.60546h.68164v-1.69434h.792v1.69434h1.15527v.60546H245.1543v3.29981c0,.49512.23144.793.7373.793h.418v.68164Z"/><path class="cls-1" d="M247.79883,260.87591v-.89062h.89062v.89062Zm.04394,6.95313V262.416h.792V267.829Z"/><path class="cls-1" d="M252.62207,267.829h-.7041L249.9375,262.416h.8584l1.47363,4.34571,1.48535-4.34571h.8584Z"/><path class="cls-1" d="M256.25,265.332c0,1.1875.56055,1.87012,1.59473,1.87012a1.77979,1.77979,0,0,0,1.41992-.61622l.53906.47266a2.47937,2.47937,0,0,1-1.98047.83692c-1.43066,0-2.36523-.8584-2.36523-2.77247,0-1.75.84668-2.77246,2.22168-2.77246,1.39746,0,2.22265,1.01172,2.22265,2.61817v.36328Zm2.69531-1.4961a1.38983,1.38983,0,0,0-2.53027,0,2.26448,2.26448,0,0,0-.165.90137h2.86035A2.28165,2.28165,0,0,0,258.94531,263.83587Z"/><path class="cls-1" d="M267.38184,264.60541h-2.07911V267.829h-.83691v-7.833h2.916a2.30743,2.30743,0,1,1,0,4.60938Zm-.07715-3.86133h-2.002v3.11328h2.002a1.55993,1.55993,0,1,0,0-3.11328Z"/><path class="cls-1" d="M271.73633,265.332c0,1.1875.56055,1.87012,1.59472,1.87012a1.77981,1.77981,0,0,0,1.41993-.61622l.53906.47266a2.47937,2.47937,0,0,1-1.98047.83692c-1.43066,0-2.36523-.8584-2.36523-2.77247,0-1.75.84668-2.77246,2.22168-2.77246,1.39746,0,2.22265,1.01172,2.22265,2.61817v.36328Zm2.69531-1.4961a1.38983,1.38983,0,0,0-2.53027,0,2.2643,2.2643,0,0,0-.165.90137h2.86035A2.28183,2.28183,0,0,0,274.43164,263.83587Z"/><path class="cls-1" d="M280.085,263.45013a1.13278,1.13278,0,0,0-.93555-.39551,1.32169,1.32169,0,0,0-1.29785,1.45215V267.829h-.792V262.416h.792v.66016a1.81835,1.81835,0,0,1,1.51856-.72559,1.66767,1.66767,0,0,1,1.29785.50586Z"/><path class="cls-1" d="M283.14844,263.05462V267.829h-.792v-4.77442h-.69336v-.60546h.69336v-1.02344a1.31926,1.31926,0,0,1,1.375-1.45215h.57226v.68262H283.875c-.50586,0-.72656.29687-.72656.792v1.001h1.15527v.60546Z"/><path class="cls-1" d="M289.12012,267.27923a2.26069,2.26069,0,0,1-3.10254,0,3.85151,3.85151,0,0,1,0-4.3125,2.26072,2.26072,0,0,1,3.10254,0,3.85156,3.85156,0,0,1,0,4.3125Zm-.56153-3.8291a1.38653,1.38653,0,0,0-.99023-.39551,1.36064,1.36064,0,0,0-.97852.39551,3.3953,3.3953,0,0,0,0,3.34473,1.36145,1.36145,0,0,0,.97852.39648,1.38733,1.38733,0,0,0,.99023-.39648,3.46929,3.46929,0,0,0,0-3.34473Z"/><path class="cls-1" d="M294.51465,263.45013a1.13279,1.13279,0,0,0-.93555-.39551,1.32169,1.32169,0,0,0-1.29785,1.45215V267.829h-.792V262.416h.792v.66016a1.81833,1.81833,0,0,1,1.51855-.72559,1.66767,1.66767,0,0,1,1.29786.50586Z"/><path class="cls-1" d="M303.30957,267.829v-3.333a1.34406,1.34406,0,1,0-2.68457-.08887V267.829h-.792v-3.333a1.26024,1.26024,0,0,0-1.33106-1.44141,1.28082,1.28082,0,0,0-1.35351,1.44141v3.333h-.792V262.416h.792v.59473a1.97236,1.97236,0,0,1,1.52929-.66016,1.78452,1.78452,0,0,1,1.66114.90137,2.07269,2.07269,0,0,1,1.78222-.90137,1.9706,1.9706,0,0,1,1.39746.50586,2.014,2.014,0,0,1,.583,1.50684V267.829Z"/><path class="cls-1" d="M309.11426,267.829v-.5166a1.90327,1.90327,0,0,1-1.5625.583,1.93144,1.93144,0,0,1-1.5293-.49512,1.5631,1.5631,0,0,1-.40625-1.10059c0-.94629.65918-1.5625,1.87012-1.5625h1.62793v-.5166c0-.792-.39649-1.18848-1.38574-1.18848a1.42,1.42,0,0,0-1.36426.61621l-.53906-.49511a2.09683,2.09683,0,0,1,1.91406-.80274c1.45215,0,2.167.627,2.167,1.80371V267.829Zm0-2.49707H307.5957c-.81347,0-1.21.33008-1.21.957s.38477.92383,1.24317.92383a1.58145,1.58145,0,0,0,1.21-.36328,1.24628,1.24628,0,0,0,.27539-.93457Z"/><path class="cls-1" d="M315.28223,267.829v-3.333a1.3407,1.3407,0,1,0-2.67383,0v3.333h-.792V262.416h.792v.59473a1.94993,1.94993,0,0,1,1.51855-.66016,1.89579,1.89579,0,0,1,1.38575.50586,2.00047,2.00047,0,0,1,.56152,1.50684V267.829Z"/><path class="cls-1" d="M320.10059,267.89545c-1.36426,0-2.39844-.92481-2.39844-2.77247,0-1.84863,1.03418-2.77246,2.39844-2.77246a2.14482,2.14482,0,0,1,1.78222.80274l-.53906.50586a1.48577,1.48577,0,0,0-1.24316-.6045,1.4675,1.4675,0,0,0-1.25489.61622,3.17488,3.17488,0,0,0,0,2.90429,1.46749,1.46749,0,0,0,1.25489.61621,1.49826,1.49826,0,0,0,1.24316-.61621l.53906.5166A2.143,2.143,0,0,1,320.10059,267.89545Z"/><path class="cls-1" d="M323.833,265.332c0,1.1875.56054,1.87012,1.59472,1.87012a1.77981,1.77981,0,0,0,1.41993-.61622l.53906.47266a2.47937,2.47937,0,0,1-1.98047.83692c-1.43066,0-2.36523-.8584-2.36523-2.77247,0-1.75.84668-2.77246,2.22168-2.77246,1.39746,0,2.22265,1.01172,2.22265,2.61817v.36328Zm2.69531-1.4961a1.38983,1.38983,0,0,0-2.53027,0,2.2643,2.2643,0,0,0-.165.90137h2.86035A2.28183,2.28183,0,0,0,326.52832,263.83587Z"/></svg>